<svg width="512" height="512" viewBox="0 0 512 512" fill="none" xmlns="http://www.w3.org/2000/svg">
<path d="M256 448C362.039 448 448 362.039 448 256C448 149.961 362.039 64 256 64C149.961 64 64 149.961 64 256C64 362.039 149.961 448 256 448Z" stroke="#5EDADA" stroke-width="20" stroke-miterlimit="10"/>
<path d="M428.329 340.744L319.757 273.968C317.853 272.797 315.726 272.038 313.512 271.74L267.874 265.588C264.447 265.126 260.963 265.786 257.943 267.471C254.923 269.155 252.53 271.773 251.123 274.931L223.725 336.408C222.451 339.267 222.043 342.437 222.553 345.525C223.062 348.613 224.466 351.484 226.591 353.783L264.191 394.452C265.895 396.296 267.142 398.515 267.83 400.929C268.518 403.344 268.628 405.887 268.151 408.352L260.493 447.945" fill="#04070D" stroke="#5EDADA" stroke-width="20" stroke-linecap="round" stroke-linejoin="round"/>
<path d="M129.904 111.213L112.016 153.512C110.421 157.284 110.333 161.523 111.769 165.358L134.751 226.694C135.692 229.206 137.25 231.441 139.28 233.193C141.311 234.946 143.75 236.16 146.372 236.723L189.232 245.935C191.61 246.446 193.84 247.493 195.753 248.996C197.666 250.498 199.211 252.417 200.271 254.607L207.882 270.331C209.192 273.037 211.238 275.319 213.785 276.916C216.332 278.513 219.278 279.36 222.284 279.36H249.149" stroke="#5EDADA" stroke-width="20" stroke-linecap="round" stroke-linejoin="round"/>
<path d="M304.917 70.297L323.584 103.734C325.349 106.895 325.989 110.561 325.401 114.133C324.813 117.705 323.031 120.972 320.346 123.4L266.524 172.075C265.61 172.901 264.605 173.619 263.527 174.215L239.043 187.735C236.675 189.043 234.014 189.729 231.308 189.729H188.617C185.469 189.729 182.391 190.658 179.768 192.399C177.145 194.14 175.094 196.616 173.872 199.518L157.218 239.054" stroke="#5EDADA" stroke-width="20" stroke-linecap="round" stroke-linejoin="round"/>
<path d="M232.588 341.804L260 281L262.214 277.014C262.391 276.697 262.725 276.5 263.088 276.5H267L309.903 281.988C309.968 281.996 310.031 282.01 310.093 282.031L314.39 283.463C314.463 283.488 314.533 283.52 314.599 283.561L412.564 343.923C413.066 344.232 413.193 344.907 412.837 345.377L396.5 367L385.5 380L375.5 390.5L368.055 398.441C368.019 398.48 367.978 398.517 367.936 398.549L361.5 403.5L350.073 412.443C350.024 412.481 349.973 412.514 349.918 412.543L337.5 419L315.565 428.971C315.522 428.99 315.477 429.007 315.432 429.02L295.084 434.975C295.028 434.992 294.971 435.003 294.913 435.01L286 436L274.355 437.344C273.684 437.421 273.13 436.824 273.258 436.161L278.482 409.094C278.494 409.031 278.5 408.968 278.5 408.904V405.5L278.015 400.653C278.005 400.552 277.98 400.452 277.939 400.359L276.5 397L275.06 393.159C275.02 393.054 274.963 392.956 274.891 392.87L272.5 390L233.145 347.157C233.049 347.054 232.977 346.931 232.932 346.797L232.551 345.654C232.517 345.552 232.5 345.445 232.5 345.338V344V342.215C232.5 342.073 232.53 341.933 232.588 341.804Z" fill="#04070D"/>
<path d="M138.5 117C196.039 73.6948 248 68.5 298 79L315.5 109.5V112.5L314.5 115L259 165.5L231.5 180H186.5C174.833 180.355 171.658 185.519 165.5 194L151 227.5L146 226L144.5 224.5L121 161.5V158L138.5 117Z" fill="#04070D"/>
<path d="M252.5 438C93.5 431 35.5 265 101 161L101 165L102.5 168.5L121 218.5C123.959 233.527 128.71 238.976 140.5 245.5L178 254C186.498 255.184 189.293 256.435 191.5 259.5L198.5 274C203.581 283.509 208.711 286.461 220 289.5H233.5L214.5 333L213 340V349L214.5 355L258.5 401.5V406L252.5 438Z" fill="#04070D" stroke="#04070D"/>
<path d="M424 326C466 213 405 122.5 326.5 88L332.5 99.5C339.87 119.203 333.446 120.811 328.5 129.5L272 180.5L269 182.5L251.5 192C242.076 199.263 237.991 199.089 230.5 199.5H193C186.917 199.228 185.145 200.914 182.5 204.5L171 232L187 235C197.874 236.337 201.974 240.258 208.5 248.5L215 262C217.038 267.197 218.985 268.464 223 269.5H243C252.75 254.414 258.437 256.127 268.5 255.5L318 262.5L323.5 264.5L424 326Z" fill="#04070D" stroke="#04070D"/>
</svg>
