<svg width="73" height="72" viewBox="0 0 73 72" fill="none" xmlns="http://www.w3.org/2000/svg">
<path d="M36.5 45C42.7132 45 47.75 39.9632 47.75 33.75C47.75 27.5368 42.7132 22.5 36.5 22.5C30.2868 22.5 25.25 27.5368 25.25 33.75C25.25 39.9632 30.2868 45 36.5 45Z" stroke="white" stroke-width="3" stroke-linecap="round" stroke-linejoin="round"/>
<path d="M61.25 13.5H11.75C10.5074 13.5 9.5 14.5074 9.5 15.75V56.25C9.5 57.4926 10.5074 58.5 11.75 58.5H61.25C62.4926 58.5 63.5 57.4926 63.5 56.25V15.75C63.5 14.5074 62.4926 13.5 61.25 13.5Z" stroke="white" stroke-width="3" stroke-linecap="round" stroke-linejoin="round"/>
<path d="M17.4023 58.4987C18.7998 54.5507 21.3865 51.1328 24.8065 48.7154C28.2264 46.298 32.3116 45 36.4996 45C40.6877 45 44.7728 46.298 48.1928 48.7154C51.6128 51.1328 54.1995 54.5507 55.5969 58.4987" stroke="white" stroke-width="3" stroke-linecap="round" stroke-linejoin="round"/>
</svg>
