<svg width="72" height="72" viewBox="0 0 72 72" fill="none" xmlns="http://www.w3.org/2000/svg">
<path d="M36 63C50.9117 63 63 50.9117 63 36C63 21.0883 50.9117 9 36 9C21.0883 9 9 21.0883 9 36C9 50.9117 21.0883 63 36 63Z" stroke="white" stroke-width="3" stroke-miterlimit="10"/>
<path d="M60.2339 47.9172L44.9659 38.5267C44.6982 38.3621 44.3991 38.2554 44.0877 38.2134L37.67 37.3483C37.188 37.2833 36.6981 37.3762 36.2734 37.6131C35.8487 37.85 35.5122 38.2181 35.3142 38.6622L31.4615 47.3074C31.2823 47.7094 31.225 48.1552 31.2966 48.5895C31.3682 49.0238 31.5657 49.4275 31.8645 49.7507L37.152 55.4698C37.3917 55.7291 37.567 56.0411 37.6637 56.3807C37.7605 56.7203 37.776 57.0779 37.7089 57.4246L36.6319 62.9923" stroke="white" stroke-width="3" stroke-linecap="round" stroke-linejoin="round"/>
<path d="M18.2675 15.6393L15.7519 21.5876C15.5276 22.118 15.5152 22.7142 15.7173 23.2535L18.9491 31.8789C19.0814 32.2321 19.3004 32.5464 19.586 32.7928C19.8715 33.0393 20.2145 33.21 20.5832 33.2892L26.6104 34.5846C26.9448 34.6565 27.2585 34.8037 27.5275 35.015C27.7965 35.2263 28.0138 35.4962 28.1628 35.8041L29.2332 38.0153C29.4173 38.3958 29.705 38.7167 30.0632 38.9413C30.4214 39.1658 30.8356 39.2849 31.2584 39.2849H35.0363" stroke="white" stroke-width="3" stroke-linecap="round" stroke-linejoin="round"/>
<path d="M42.8785 9.8855L45.5036 14.5875C45.7518 15.0321 45.8419 15.5476 45.7591 16.0499C45.6764 16.5522 45.4258 17.0116 45.0482 17.3531L37.4796 24.1981C37.3511 24.3142 37.2097 24.4152 37.058 24.4989L33.6151 26.4002C33.282 26.5842 32.9078 26.6806 32.5274 26.6806H26.524C26.0813 26.6806 25.6484 26.8112 25.2795 27.0561C24.9107 27.3009 24.6223 27.6492 24.4504 28.0572L22.1084 33.617" stroke="white" stroke-width="3" stroke-linecap="round" stroke-linejoin="round"/>
</svg>
