<svg width="126" height="126" viewBox="0 0 126 126" fill="none" xmlns="http://www.w3.org/2000/svg">
<path fill-rule="evenodd" clip-rule="evenodd" d="M102.644 5.07353C100.524 7.61947 98.3493 9.70269 97.8116 9.70269C97.2731 9.70269 94.5337 11.0074 91.7244 12.6011C88.9142 14.1958 81.3644 17.5798 74.9461 20.1208C57.0251 27.2174 52.2008 31.6083 47.6626 44.9526C45.3805 51.662 43.0838 56.1591 44.1133 51.9033C44.3769 50.8111 45.0555 47.1183 45.6217 43.6975C47.8121 30.4515 54.0082 24.2336 71.9483 17.2789C84.8929 12.2605 97.0267 6.59871 102.607 2.97144L106.497 0.443375L102.644 5.07353ZM122.489 8.55582C122.489 9.86355 112.608 20.3402 108.018 23.898C100.208 29.952 88.3428 33.201 85.3614 30.102C83.8366 28.5172 83.1217 28.5609 73.0254 30.8616C67.1309 32.2051 60.6478 34.2267 58.619 35.3527C56.5894 36.4787 55.3317 36.8422 55.8244 36.161C57.5861 33.7233 64.376 30.5726 75.4086 27.0764C95.3584 20.7533 106.333 16.565 114.493 12.1593C118.89 9.7851 122.489 8.16361 122.489 8.55582ZM77.9716 9.70269C78.3165 10.3441 78.2101 11.3152 77.7347 11.8614C77.1581 12.5237 76.6611 12.4661 76.2427 11.6886C75.8978 11.0472 76.0041 10.076 76.4796 9.52992C77.0561 8.86761 77.5532 8.9252 77.9716 9.70269ZM70.624 10.6956C70.624 11.2418 70.0405 11.6886 69.3274 11.6886C68.6143 11.6886 68.0308 11.2418 68.0308 10.6956C68.0308 10.1495 68.6143 9.70269 69.3274 9.70269C70.0405 9.70269 70.624 10.1495 70.624 10.6956ZM30.4287 26.149C31.855 26.996 33.6055 28.3971 34.3186 29.2629C35.483 30.6769 35.4389 30.7603 33.8864 30.0891C32.9355 29.678 29.5306 29.108 26.3202 28.8221C19.5337 28.2173 13.736 30.2301 11.0754 34.1155C10.032 35.6387 8.91434 36.302 8.04042 35.9167C6.23638 35.1214 6.29602 34.33 8.38963 31.2717C12.5086 25.2573 24.3078 22.5148 30.4287 26.149ZM85.5533 28.1756C85.8403 28.5053 86.5863 28.541 87.2096 28.2541C87.8994 27.9373 87.6945 27.702 86.6874 27.6543C85.7764 27.6116 85.2663 27.846 85.5533 28.1756ZM32.2466 32.8237C34.3748 34.2357 34.0757 35.9753 31.0719 39.682C28.9584 42.2885 28.7189 42.3411 21.4544 41.7841C17.3571 41.4693 13.4214 40.7911 12.7082 40.2768C11.6787 39.5341 11.7375 39.4586 12.9926 39.9124C15.7821 40.9182 18.7764 39.3563 20.2062 36.1481C20.9695 34.4372 22.0258 32.7085 22.5539 32.3073C24.0597 31.1625 30.2386 31.4921 32.2466 32.8237ZM16.1659 34.5266C16.1659 35.0727 15.5591 35.5195 14.8183 35.5195C14.0775 35.5195 13.711 35.0727 14.0049 34.5266C14.2988 33.9805 14.9047 33.5336 15.3525 33.5336C15.8003 33.5336 16.1659 33.9805 16.1659 34.5266ZM105.201 34.9615C105.201 35.179 103.878 36.296 102.262 37.4439C99.4695 39.4258 98.2697 39.5231 78.2741 39.3861C53.0219 39.2133 53.8803 37.8798 80.1326 36.4996C89.8789 35.9872 99.5067 35.3418 101.527 35.0668C103.547 34.7907 105.201 34.7431 105.201 34.9615ZM121.529 38.8628C122.276 39.8975 122.19 40.526 121.166 41.5021C119.505 43.0859 117.864 41.5518 118.663 39.1607C119.335 37.151 120.225 37.0576 121.529 38.8628ZM8.85382 40.527C11.2725 43.4274 11.2785 43.4632 9.32666 43.4632C8.23663 43.4632 6.2407 44.8275 4.87406 46.5086L2.39752 49.555L1.88577 47.2146C1.22623 44.195 2.66289 39.8915 4.76082 38.6017C6.09288 37.7825 6.86913 38.1479 8.85382 40.527ZM119.247 41.0632C120.071 42.0095 121.723 40.4774 121.108 39.3365C120.744 38.6583 120.26 38.6752 119.64 39.3881C119.131 39.973 118.954 40.7266 119.247 41.0632ZM38.2085 42.4702C38.5024 43.0164 38.4842 43.9428 38.1687 44.5296C37.8532 45.1165 38.511 46.7568 39.6304 48.1758C41.5296 50.5817 41.4483 50.5608 38.4246 47.854C35.177 44.9477 34.0913 41.4773 36.4286 41.4773C37.1141 41.4773 37.9146 41.9241 38.2085 42.4702ZM73.6789 44.9576C77.0233 45.6616 83.8306 47.5125 88.8061 49.0704C96.2124 51.39 97.3033 51.9569 94.8233 52.1972C93.1567 52.3581 87.3219 51.1665 81.8571 49.548C76.3923 47.9295 68.6151 46.0846 64.5749 45.4491C60.5346 44.8136 57.0657 44.1066 56.8669 43.8782C56.0906 42.9866 67.9219 43.7462 73.6789 44.9576ZM31.4384 47.015C31.7262 47.8759 32.8871 48.985 34.0195 49.4785C35.6126 50.1746 36.0345 51.0295 35.8858 53.2647C35.7008 56.0559 35.6265 56.1005 33.6668 54.625C32.5198 53.7621 31.8412 52.4931 32.104 51.7047C32.3607 50.9372 31.9467 49.2164 31.1842 47.8799C30.4218 46.5423 30.0493 45.4491 30.3561 45.4491C30.6639 45.4491 31.1505 46.1531 31.4384 47.015ZM124.991 48.7983C126.412 50.7644 125.227 53.3927 122.921 53.3927C120.791 53.3927 119.646 51.3244 120.447 48.9244C121.07 47.0607 123.684 46.9882 124.991 48.7983ZM122.057 51.4068C122.475 52.1843 122.972 52.2419 123.549 51.5796C124.024 51.0335 124.13 50.0624 123.786 49.4209C123.367 48.6434 122.87 48.5858 122.294 49.2481C121.818 49.7943 121.712 50.7654 122.057 51.4068ZM112.802 49.1637C109.613 49.3534 104.168 49.3554 100.7 49.1657C97.2324 48.9771 99.8412 48.8212 106.497 48.8202C113.153 48.8182 115.99 48.9731 112.802 49.1637ZM67.1664 50.7982C73.0167 53.1445 78.4038 56.0727 78.4038 56.9068C78.4038 57.1729 76.9446 56.6606 75.1622 55.7679C73.3789 54.8742 68.6143 52.8744 64.5731 51.3234C60.532 49.7724 58.1981 48.5134 59.3866 48.5243C60.5752 48.5352 64.0761 49.5589 67.1664 50.7982ZM32.5898 52.4584C32.5898 52.9727 33.1733 53.3927 33.8864 53.3927C35.2228 53.3927 35.604 52.2211 34.6307 51.103C33.94 50.3096 32.5898 51.2063 32.5898 52.4584ZM20.9591 54.8375C21.8468 56.7301 22.3032 58.5889 21.9739 58.9672C21.6446 59.3455 20.7637 57.9742 20.0169 55.9198C18.2604 51.0931 18.8741 50.3891 20.9591 54.8375ZM46.7938 58.2493C47.4007 59.3753 43.8548 62.0563 39.3357 63.8873C35.1113 65.5992 27.8779 65.6657 24.5421 64.0223C22.3715 62.9529 22.8305 62.8258 28.8642 62.8258C34.4794 62.8258 36.4295 62.3661 40.456 60.0952C45.8205 57.0687 46.1135 56.9833 46.7938 58.2493ZM37.3441 58.3575C37.638 58.9037 37.4659 59.3505 36.9629 59.3505C36.4598 59.3505 36.0474 58.9037 36.0474 58.3575C36.0474 57.8114 36.2186 57.3646 36.4286 57.3646C36.6387 57.3646 37.0502 57.8114 37.3441 58.3575ZM52.0184 59.5521C51.2257 61.9232 41.8174 67.308 36.9084 68.1997C34.533 68.6307 32.5898 68.6644 32.5898 68.2742C32.5898 67.883 34.3376 67.2892 36.4745 66.9526C40.4404 66.328 48.2072 62.3641 50.9958 59.5411C52.4091 58.1103 52.499 58.1113 52.0184 59.5521ZM117.13 60.542C118.531 62.1516 118.435 63.8168 116.854 65.3241C115.786 66.3419 115.262 66.2863 114.044 65.0262C113.222 64.1743 111.187 63.2905 109.523 63.0622L106.497 62.6471L109.368 62.4882C110.947 62.4008 112.823 61.6591 113.536 60.8399C115.104 59.0387 115.772 58.9831 117.13 60.542ZM93.3149 63.3432C97.6767 66.4898 99.1039 68.5482 94.9867 65.755C92.1047 63.7989 88.1613 60.3891 88.7767 60.3842C89.0144 60.3822 91.0571 61.7137 93.3149 63.3432ZM113.845 62.2708C113.845 63.6113 115.421 64.5407 116.452 63.8089C116.935 63.4653 117.107 62.7692 116.833 62.2608C116.185 61.0544 113.845 61.0623 113.845 62.2708ZM99.1497 72.2818C105.568 77.2058 110.945 81.8956 111.099 82.7048C111.252 83.5131 111.146 84.1744 110.862 84.1744C110.117 84.1744 84.4547 64.3768 84.4547 63.8029C84.4547 61.8915 89.1018 64.5724 99.1497 72.2818ZM91.6622 73.2181C98.1574 78.1144 103.472 82.3861 103.472 82.7098C103.472 83.0335 102.985 82.9679 102.391 82.5638C99.9208 80.8827 80.4991 65.9745 79.7436 65.1791C77.4875 62.805 80.927 65.1245 91.6622 73.2181ZM49.0137 66.2664C46.3461 68.6902 39.9563 71.2967 36.9741 71.1776C35.3499 71.1121 35.7985 70.7546 38.6407 69.849C40.7801 69.1678 44.4755 67.6407 46.8526 66.4571C50.8782 64.4513 51.026 64.4374 49.0137 66.2664ZM54.7136 67.1859C52.2189 70.3604 44.721 74.0562 39.4506 74.7095C34.8303 75.2825 34.8606 75.2576 41.2339 73.2658C44.7996 72.1517 49.662 69.856 52.0391 68.164C55.2763 65.8603 55.948 65.615 54.7136 67.1859ZM88.4439 74.5427C99.0806 82.4576 104.645 87.1652 100.879 85.0641C98.0026 83.4595 78.4038 68.3794 78.4038 67.7708C78.4038 67.0548 78.1574 66.889 88.4439 74.5427ZM106.101 69.8262C107.019 71.0981 106.963 71.6532 105.775 73.0175C104.433 74.5596 104.239 74.5596 102.898 73.0175C101.709 71.6532 101.653 71.0981 102.571 69.8262C103.183 68.9802 103.977 68.2871 104.336 68.2871C104.695 68.2871 105.489 68.9802 106.101 69.8262ZM103.472 71.266C103.472 71.8121 103.861 72.2589 104.336 72.2589C104.812 72.2589 105.201 71.8121 105.201 71.266C105.201 70.7198 104.812 70.273 104.336 70.273C103.861 70.273 103.472 70.7198 103.472 71.266ZM80.3522 73.7235C89.4916 80.0536 98.3804 87.2764 98.8826 88.7787C100.16 92.6036 97.3958 91.8688 90.4528 86.5366C76.9585 76.1731 72.3166 72.1368 72.8196 71.2024C73.6633 69.6335 75.1812 70.1409 80.3522 73.7235ZM87.9486 88.2763C99.4168 97.0858 109.015 104.94 109.28 105.73C109.543 106.52 109.155 107.86 108.417 108.707C106.676 110.707 102.913 109.684 102.174 107.01C101.873 105.919 101.044 105.026 100.331 105.026C98.5939 105.026 92.9985 100.059 93.5595 99.0151C93.8042 98.5613 87.9901 92.9928 80.64 86.6419C67.1448 74.9826 64.4028 72.2589 66.1619 72.2589C66.6771 72.2589 76.4813 79.4668 87.9486 88.2763ZM26.1067 77.9694C32.8223 81.1151 34.852 81.6185 40.9443 81.6523C46.3288 81.6831 47.7983 81.974 47.1422 82.8825C44.0243 87.1979 33.3202 86.9517 26.3029 82.4019C14.986 75.065 6.04534 76.5187 4.40122 85.9617C3.93444 88.6407 4.2681 89.5542 6.64351 92.1031C8.17785 93.7495 8.95756 95.0969 8.37581 95.0969C6.40754 95.0969 0.606443 87.4988 0.606443 84.9221C0.606443 81.6423 3.68117 77.3061 7.20712 75.6141C12.0357 73.2965 17.6129 73.9916 26.1067 77.9694ZM112.227 77.9684C113.324 79.576 113.283 79.5969 111.684 78.2494C110.733 77.4481 109.792 76.6666 109.594 76.5117C109.396 76.3568 109.641 76.2307 110.137 76.2307C110.633 76.2307 111.574 77.0122 112.227 77.9684ZM60.5519 86.4085C62.6671 89.8223 67.0255 97.5296 70.2368 103.537C73.4489 109.544 77.0622 115.689 78.2663 117.19C81.118 120.747 79.5655 120.683 75.2919 117.07C70.9421 113.392 66.5423 108.005 67.8864 108.005C68.4976 108.005 67.8302 105.844 66.2769 102.792C62.6256 95.6162 55.8235 80.2026 56.3085 80.2026C56.5272 80.2026 58.4366 82.9957 60.5519 86.4085ZM81.2399 93.0584C89.8719 100.698 108.819 118.623 115.141 125.131C116.693 126.728 106.627 121.851 101.311 118.43C93.9511 113.694 92.409 112.21 93.7705 111.177C94.5536 110.581 92.0503 107.437 85.1263 100.322C75.8269 90.7666 68.9773 83.1248 69.8063 83.2301C70.0181 83.2569 75.1639 87.6795 81.2399 93.0584ZM70.293 90.3804C77.5281 98.9069 94.2882 120.914 93.5474 120.914C92.6856 120.914 85.9103 116.812 83.3534 114.742C82.0343 113.674 81.0618 112.183 81.1924 111.427C81.3229 110.671 78.0813 105.236 73.9892 99.3477C66.7964 88.9982 63.1468 83.1814 63.847 83.1814C64.0329 83.1814 66.933 86.4214 70.293 90.3804ZM52.4713 96.0899C52.4713 96.636 52.1057 97.0828 51.6579 97.0828C51.2101 97.0828 50.6042 96.636 50.3103 96.0899C50.0164 95.5437 50.3829 95.0969 51.1237 95.0969C51.8645 95.0969 52.4713 95.5437 52.4713 96.0899ZM33.4542 96.9557C39.404 99.2018 50.363 105.337 49.2116 105.778C48.7396 105.959 44.9397 104.483 40.768 102.5C36.5963 100.516 31.0909 98.6447 28.5331 98.3419C25.6987 98.0053 24.007 97.3618 24.198 96.6916C24.702 94.9231 28.3464 95.0274 33.4542 96.9557ZM56.3154 98.9843C56.5937 99.5017 56.4528 100.186 56.0025 100.506C55.5521 100.825 54.9565 100.663 54.6782 100.146C54.3998 99.6288 54.5407 98.9446 54.9911 98.6249C55.4414 98.3051 56.037 98.467 56.3154 98.9843ZM120.726 101.503C123.022 104.682 119.649 109.564 116.654 107.398C113.662 105.232 114.727 100.062 118.167 100.062C119.001 100.062 120.152 100.71 120.726 101.503ZM116.438 104.033C116.438 105.357 117.015 106.019 118.167 106.019C119.319 106.019 119.896 105.357 119.896 104.033C119.896 102.71 119.319 102.048 118.167 102.048C117.015 102.048 116.438 102.71 116.438 104.033ZM104.489 106.35C104.301 107.466 104.793 108.005 106.002 108.005C106.987 108.005 107.794 107.41 107.794 106.682C107.794 103.64 104.994 103.359 104.489 106.35ZM39.9373 105.188C44.4037 106.906 55.0628 112.31 54.7326 112.689C54.5597 112.888 50.771 111.654 46.3132 109.947C40.0116 107.534 36.0933 106.713 28.6999 106.262C22.5799 105.887 19.9615 105.422 21.3524 104.956C24.5507 103.884 36.9499 104.038 39.9373 105.188ZM68.1414 123.644C69.2159 125.219 69.1856 125.254 67.8147 124.02C66.9822 123.27 66.302 122.488 66.302 122.282C66.302 121.465 67.0116 121.99 68.1414 123.644Z" fill="#5EDADA"/>
<path d="M14.8183 35.5195C15.5591 35.5195 16.1659 35.0727 16.1659 34.5266C16.1659 33.9805 15.8003 33.5336 15.3525 33.5336C14.9047 33.5336 14.2988 33.9805 14.0049 34.5266C13.711 35.0727 14.0775 35.5195 14.8183 35.5195Z" fill="#5EDADA"/>
</svg>
