<svg width="50" height="50" viewBox="0 0 50 50" fill="none" xmlns="http://www.w3.org/2000/svg">
<path fill-rule="evenodd" clip-rule="evenodd" d="M40.8149 1.85206C39.9671 2.87044 39.0971 3.70373 38.8821 3.70373C38.6666 3.70373 37.5709 4.22562 36.4472 4.8631C35.3231 5.50098 32.3032 6.85457 29.7359 7.87096C22.5674 10.7096 20.6377 12.466 18.8225 17.8037C17.9096 20.4875 16.9909 22.2863 17.4027 20.584C17.5082 20.1471 17.7796 18.67 18.0061 17.3017C18.8823 12.0032 21.3607 9.51609 28.5367 6.73423C33.7146 4.72687 38.5681 2.46213 40.8004 1.01123L42.3563 0L40.8149 1.85206ZM48.753 3.24498C48.753 3.76807 44.8005 7.95874 42.9645 9.38185C39.8405 11.8035 35.0945 13.103 33.902 11.8634C33.2921 11.2295 33.0061 11.247 28.9676 12.1673C26.6098 12.7047 24.0165 13.5133 23.205 13.9637C22.3932 14.4141 21.8901 14.5595 22.0872 14.287C22.7918 13.312 25.5078 12.0517 29.9208 10.6532C37.9008 8.12397 42.2906 6.44865 45.5547 4.68635C47.3136 3.73669 48.753 3.08809 48.753 3.24498ZM30.946 3.70373C31.084 3.96031 31.0415 4.34875 30.8513 4.5672C30.6207 4.83212 30.4219 4.80908 30.2545 4.49809C30.1166 4.24151 30.1591 3.85307 30.3493 3.63462C30.5799 3.3697 30.7787 3.39273 30.946 3.70373ZM28.007 4.10091C28.007 4.31936 27.7736 4.49809 27.4884 4.49809C27.2031 4.49809 26.9697 4.31936 26.9697 4.10091C26.9697 3.88246 27.2031 3.70373 27.4884 3.70373C27.7736 3.70373 28.007 3.88246 28.007 4.10091ZM11.9289 10.2823C12.4994 10.6211 13.1996 11.1815 13.4849 11.5278C13.9506 12.0934 13.933 12.1268 13.312 11.8583C12.9316 11.6938 11.5697 11.4659 10.2855 11.3515C7.57089 11.1096 5.25184 11.9147 4.18757 13.4689C3.77023 14.0781 3.32316 14.3434 2.97359 14.1893C2.25198 13.8712 2.27583 13.5546 3.11328 12.3313C4.76085 9.92559 9.48055 8.82857 11.9289 10.2823ZM33.9788 11.0929C34.0936 11.2248 34.3919 11.2391 34.6412 11.1243C34.9172 10.9976 34.8352 10.9035 34.4324 10.8844C34.068 10.8673 33.864 10.961 33.9788 11.0929ZM12.6561 12.9521C13.5073 13.5169 13.3877 14.2128 12.1862 15.6955C11.3408 16.7381 11.245 16.7591 8.33918 16.5363C6.70025 16.4104 5.12598 16.1391 4.84072 15.9334C4.42892 15.6363 4.45243 15.6061 4.95448 15.7876C6.07027 16.1899 7.268 15.5652 7.83989 14.2819C8.1452 13.5975 8.56773 12.906 8.77899 12.7456C9.38132 12.2876 11.8529 12.4195 12.6561 12.9521ZM6.22378 13.6333C6.22378 13.8517 5.98106 14.0305 5.68474 14.0305C5.38842 14.0305 5.24181 13.8517 5.35937 13.6333C5.47693 13.4148 5.71931 13.2361 5.89842 13.2361C6.07753 13.2361 6.22378 13.4148 6.22378 13.6333ZM41.8377 13.8073C41.8377 13.8942 41.3086 14.3411 40.6621 14.8002C39.5452 15.593 39.0653 15.6319 31.0671 15.5771C20.9662 15.508 21.3095 14.9746 31.8105 14.4225C35.709 14.2175 39.5601 13.9594 40.3682 13.8494C41.1762 13.7389 41.8377 13.7199 41.8377 13.8073ZM48.3692 15.3678C48.6679 15.7816 48.6334 16.0331 48.224 16.4235C47.5594 17.057 46.9031 16.4434 47.2226 15.4869C47.4913 14.683 47.8474 14.6457 48.3692 15.3678ZM3.29895 16.0335C4.26641 17.1936 4.26883 17.2079 3.48809 17.2079C3.05208 17.2079 2.2537 17.7537 1.70705 18.4261L0.716431 19.6446L0.511734 18.7085C0.247914 17.5007 0.822579 15.7793 1.66175 15.2633C2.19458 14.9356 2.50508 15.0818 3.29895 16.0335ZM47.4564 16.2479C47.7859 16.6265 48.4466 16.0136 48.2008 15.5572C48.0549 15.286 47.8616 15.2927 47.6133 15.5779C47.4097 15.8118 47.3391 16.1133 47.4564 16.2479ZM15.0408 16.8107C15.1584 17.0292 15.1511 17.3998 15.0249 17.6345C14.8987 17.8692 15.1618 18.5254 15.6096 19.093C16.3692 20.0553 16.3367 20.047 15.1273 18.9643C13.8282 17.8017 13.3939 16.4136 14.3289 16.4136C14.6031 16.4136 14.9233 16.5923 15.0408 16.8107ZM29.229 17.8057C30.5667 18.0873 33.2896 18.8276 35.2799 19.4508C38.2424 20.3786 38.6788 20.6054 37.6867 20.7015C37.0201 20.7659 34.6862 20.2893 32.5003 19.6419C30.3143 18.9945 27.2035 18.2565 25.5874 18.0023C23.9713 17.7481 22.5837 17.4653 22.5042 17.3739C22.1937 17.0173 26.9262 17.3211 29.229 17.8057ZM12.3328 18.6286C12.4479 18.973 12.9123 19.4167 13.3652 19.6141C14.0025 19.8925 14.1712 20.2345 14.1117 21.1285C14.0377 22.245 14.008 22.2629 13.2242 21.6727C12.7653 21.3275 12.4939 20.8199 12.599 20.5045C12.7017 20.1975 12.5361 19.5092 12.2311 18.9746C11.9262 18.4396 11.7771 18.0023 11.8999 18.0023C12.023 18.0023 12.2176 18.2839 12.3328 18.6286ZM49.754 19.342C50.3221 20.1284 49.8484 21.1798 48.9259 21.1798C48.0739 21.1798 47.6158 20.3524 47.9363 19.3924C48.1856 18.6469 49.2308 18.6179 49.754 19.342ZM48.5801 20.3854C48.7475 20.6964 48.9463 20.7194 49.1769 20.4545C49.3671 20.236 49.4096 19.8476 49.2716 19.591C49.1043 19.28 48.9055 19.257 48.6748 19.5219C48.4847 19.7404 48.4421 20.1288 48.5801 20.3854ZM44.8783 19.4881C43.6028 19.564 41.4245 19.5648 40.0376 19.4889C38.6504 19.4135 39.6939 19.3511 42.3563 19.3507C45.0187 19.3499 46.1535 19.4119 44.8783 19.4881ZM26.624 20.1419C28.9641 21.0805 31.1189 22.2517 31.1189 22.5854C31.1189 22.6918 30.5353 22.4869 29.8223 22.1298C29.109 21.7723 27.2031 20.9724 25.5867 20.352C23.9702 19.7316 23.0366 19.228 23.5121 19.2324C23.9875 19.2367 25.3879 19.6462 26.624 20.1419ZM12.7933 20.806C12.7933 21.0117 13.0267 21.1798 13.312 21.1798C13.8465 21.1798 13.999 20.7111 13.6097 20.2638C13.3334 19.9465 12.7933 20.3052 12.7933 20.806ZM8.14106 21.7577C8.49616 22.5147 8.67872 23.2582 8.54698 23.4095C8.41525 23.5609 8.06291 23.0123 7.76417 22.1906C7.06158 20.2599 7.30707 19.9783 8.14106 21.7577ZM18.475 23.1224C18.7177 23.5728 17.2994 24.6452 15.4917 25.3776C13.8019 26.0623 10.9086 26.0889 9.57426 25.4316C8.70604 25.0038 8.88964 24.953 11.3031 24.953C13.5492 24.953 14.3292 24.7691 15.9398 23.8607C18.0856 22.6501 18.2028 22.616 18.475 23.1224ZM14.695 23.1657C14.8126 23.3841 14.7438 23.5628 14.5426 23.5628C14.3413 23.5628 14.1764 23.3841 14.1764 23.1657C14.1764 22.9472 14.2449 22.7685 14.3289 22.7685C14.4129 22.7685 14.5775 22.9472 14.695 23.1657ZM20.5648 23.6435C20.2477 24.5919 16.4844 26.7459 14.5208 27.1025C13.5706 27.2749 12.7933 27.2884 12.7933 27.1323C12.7933 26.9758 13.4925 26.7383 14.3472 26.6037C15.9336 26.3538 19.0403 24.7683 20.1557 23.6391C20.7211 23.0668 20.757 23.0672 20.5648 23.6435ZM46.6092 24.0395C47.1697 24.6833 47.1313 25.3494 46.4989 25.9523C46.0719 26.3594 45.862 26.3372 45.3752 25.8331C45.046 25.4924 44.2321 25.1389 43.5665 25.0475L42.3563 24.8815L43.5046 24.8179C44.1363 24.783 44.8866 24.4863 45.1719 24.1586C45.7991 23.4381 46.0664 23.4159 46.6092 24.0395ZM37.0834 25.1599C38.8281 26.4186 39.399 27.2419 37.7521 26.1247C36.5993 25.3422 35.0219 23.9783 35.2681 23.9763C35.3632 23.9755 36.1802 24.5081 37.0834 25.1599ZM45.2953 24.731C45.2953 25.2672 45.9257 25.6389 46.3382 25.3462C46.5314 25.2088 46.6002 24.9303 46.4906 24.727C46.2313 24.2444 45.2953 24.2476 45.2953 24.731ZM39.4173 28.7354C41.9846 30.705 44.1353 32.5809 44.1968 32.9046C44.2584 33.2279 44.2158 33.4924 44.1021 33.4924C43.8044 33.4924 33.5393 25.5734 33.5393 25.3438C33.5393 24.5792 35.3981 25.6516 39.4173 28.7354ZM36.4223 29.1099C39.0204 31.0684 41.1461 32.7771 41.1461 32.9066C41.1461 33.036 40.9515 33.0098 40.7139 32.8482C39.7257 32.1757 31.9571 26.2125 31.6549 25.8943C30.7524 24.9446 32.1282 25.8725 36.4223 29.1099ZM19.3629 26.3292C18.2959 27.2987 15.74 28.3413 14.5471 28.2937C13.8974 28.2675 14.0768 28.1245 15.2137 27.7623C16.0695 27.4898 17.5476 26.8789 18.4985 26.4055C20.1087 25.6032 20.1678 25.5976 19.3629 26.3292ZM21.6429 26.697C20.645 27.9668 17.6458 29.4451 15.5377 29.7065C13.6896 29.9356 13.7017 29.9257 16.251 29.129C17.6773 28.6833 19.6222 27.765 20.5731 27.0882C21.868 26.1668 22.1366 26.0687 21.6429 26.697ZM35.135 29.6397C39.3896 32.8057 41.6153 34.6887 40.1088 33.8483C38.9585 33.2064 31.1189 27.1744 31.1189 26.931C31.1189 26.6446 31.0204 26.5783 35.135 29.6397ZM42.198 27.7531C42.5652 28.2619 42.5427 28.4839 42.0673 29.0297C41.5306 29.6465 41.4532 29.6465 40.9165 29.0297C40.4411 28.4839 40.4186 28.2619 40.7858 27.7531C41.0307 27.4147 41.3484 27.1375 41.4919 27.1375C41.6354 27.1375 41.9532 27.4147 42.198 27.7531ZM41.1461 28.329C41.1461 28.5475 41.3017 28.7262 41.4919 28.7262C41.6821 28.7262 41.8377 28.5475 41.8377 28.329C41.8377 28.1106 41.6821 27.9318 41.4919 27.9318C41.3017 27.9318 41.1461 28.1106 41.1461 28.329ZM31.8983 29.3121C35.5541 31.8441 39.1096 34.7332 39.3105 35.3341C39.8215 36.8641 38.7157 36.5702 35.9386 34.4373C30.5408 30.2919 28.684 28.6774 28.8853 28.3036C29.2227 27.6761 29.8299 27.879 31.8983 29.3121ZM34.9369 35.1332C39.5241 38.657 43.3635 41.7987 43.4693 42.1148C43.5748 42.4306 43.4195 42.9668 43.1243 43.3056C42.4279 44.1055 40.9228 43.6964 40.6271 42.6268C40.5068 42.1903 40.1749 41.8332 39.8896 41.8332C39.195 41.8332 36.9568 39.8461 37.1812 39.4287C37.2791 39.2472 34.9535 37.0198 32.0134 34.4794C26.6153 29.8157 25.5186 28.7262 26.2222 28.7262C26.4283 28.7262 30.3499 31.6094 34.9369 35.1332ZM10.2001 31.0104C12.8863 32.2687 13.6982 32.4701 16.1352 32.4836C18.2889 32.4959 18.8767 32.6122 18.6143 32.9757C17.3671 34.7018 13.0855 34.6033 10.2786 32.7834C5.75181 29.8487 2.17556 30.4301 1.51791 34.2073C1.3312 35.2789 1.46466 35.6443 2.41483 36.6639C3.02856 37.3224 3.34045 37.8614 3.10775 37.8614C2.32044 37.8614 1.85585e-06 34.8222 1.85585e-06 33.7915C1.85585e-06 32.4796 1.22989 30.7451 2.64027 30.0683C4.57172 29.1413 6.8026 29.4193 10.2001 31.0104ZM44.6481 31.01C45.0868 31.6531 45.0706 31.6614 44.4309 31.1224C44.0506 30.8019 43.6744 30.4893 43.5952 30.4273C43.516 30.3654 43.6139 30.3149 43.8123 30.3149C44.0108 30.3149 44.387 30.6275 44.6481 31.01ZM23.9782 34.3861C24.8243 35.7516 26.5676 38.8345 27.8521 41.2375C29.137 43.6404 30.5823 46.0982 31.064 46.6987C32.2046 48.1214 31.5836 48.096 29.8742 46.6507C28.1343 45.1795 26.3743 43.0248 26.912 43.0248C27.1564 43.0248 26.8895 42.1601 26.2682 40.9396C24.8077 38.0691 22.0868 31.9037 22.2808 31.9037C22.3683 31.9037 23.1321 33.0209 23.9782 34.3861ZM32.2534 37.046C35.7062 40.1019 43.285 47.2718 45.814 49.875C46.4346 50.514 42.4082 48.5631 40.2817 47.1948C37.3379 45.3002 36.721 44.7068 37.2656 44.2934C37.5789 44.0551 36.5775 42.7976 33.8079 39.9514C30.0882 36.1293 27.3484 33.0726 27.6799 33.1147C27.7647 33.1254 29.823 34.8945 32.2534 37.046ZM27.8746 35.9748C30.7687 39.3854 37.4727 48.1882 37.1764 48.1882C36.8317 48.1882 34.1216 46.5474 33.0988 45.7193C32.5711 45.2923 32.1822 44.6957 32.2344 44.3935C32.2866 44.0912 30.99 41.917 29.3531 39.5617C26.476 35.4219 25.0162 33.0952 25.2962 33.0952C25.3706 33.0952 26.5306 34.3912 27.8746 35.9748ZM20.746 38.2586C20.746 38.477 20.5997 38.6558 20.4206 38.6558C20.2415 38.6558 19.9991 38.477 19.8815 38.2586C19.764 38.0401 19.9106 37.8614 20.2069 37.8614C20.5032 37.8614 20.746 38.0401 20.746 38.2586ZM13.1391 38.6049C15.519 39.5034 19.9026 41.9576 19.4421 42.1339C19.2533 42.2062 17.7333 41.616 16.0646 40.8228C14.396 40.0292 12.1938 39.2805 11.1707 39.1594C10.0369 39.0248 9.36023 38.7674 9.43664 38.4993C9.63822 37.7919 11.096 37.8336 13.1391 38.6049ZM22.2836 39.4164C22.3949 39.6233 22.3385 39.897 22.1584 40.0249C21.9783 40.1528 21.74 40.088 21.6287 39.8811C21.5174 39.6742 21.5737 39.4005 21.7539 39.2726C21.934 39.1447 22.1722 39.2094 22.2836 39.4164ZM48.0476 40.424C48.9663 41.6954 47.6171 43.6484 46.4191 42.7817C45.222 41.9154 45.6484 39.8473 47.0242 39.8473C47.3578 39.8473 47.8184 40.1067 48.0476 40.424ZM46.3326 41.4361C46.3326 41.9655 46.5633 42.2304 47.0242 42.2304C47.4851 42.2304 47.7157 41.9655 47.7157 41.4361C47.7157 40.9066 47.4851 40.6417 47.0242 40.6417C46.5633 40.6417 46.3326 40.9066 46.3326 41.4361ZM41.5531 42.3627C41.4777 42.8091 41.6748 43.0248 42.1582 43.0248C42.5524 43.0248 42.875 42.7865 42.875 42.4953C42.875 41.2788 41.755 41.1664 41.5531 42.3627ZM15.7323 41.898C17.5189 42.5851 21.7826 44.7466 21.6505 44.8983C21.5813 44.9777 20.0658 44.4844 18.2827 43.8013C15.7621 42.8361 14.1947 42.508 11.2374 42.3273C8.78937 42.1776 7.74204 41.9913 8.29838 41.805C9.57771 41.3761 14.5374 41.438 15.7323 41.898ZM27.014 49.2804C27.4438 49.9103 27.4317 49.9242 26.8833 49.4305C26.5503 49.1307 26.2782 48.8177 26.2782 48.7355C26.2782 48.4086 26.5621 48.6187 27.014 49.2804Z" fill="#5EDADA"/>
<path d="M5.68474 14.0305C5.98106 14.0305 6.22378 13.8517 6.22378 13.6333C6.22378 13.4148 6.07753 13.2361 5.89842 13.2361C5.71931 13.2361 5.47693 13.4148 5.35937 13.6333C5.24181 13.8517 5.38842 14.0305 5.68474 14.0305Z" fill="#5EDADA"/>
</svg>
