<svg width="32" height="33" viewBox="0 0 32 33" fill="none" xmlns="http://www.w3.org/2000/svg">
<path d="M11.5858 27.5H6C5.73478 27.5 5.48043 27.3946 5.29289 27.2071C5.10536 27.0195 5 26.7652 5 26.5V20.9142C5 20.7829 5.02587 20.6528 5.07612 20.5315C5.12638 20.4102 5.20004 20.2999 5.29289 20.2071L20.2929 5.20708C20.4804 5.01954 20.7348 4.91418 21 4.91418C21.2652 4.91418 21.5196 5.01954 21.7071 5.20708L27.2929 10.7929C27.4804 10.9804 27.5858 11.2348 27.5858 11.5C27.5858 11.7652 27.4804 12.0195 27.2929 12.2071L12.2929 27.2071C12.2 27.2999 12.0898 27.3736 11.9685 27.4239C11.8471 27.4741 11.7171 27.5 11.5858 27.5Z" stroke="white" stroke-width="2" stroke-linecap="round" stroke-linejoin="round"/>
<path d="M17 8.5L24 15.5" stroke="white" stroke-width="2" stroke-linecap="round" stroke-linejoin="round"/>
<path d="M11.937 27.4361L5.06445 20.5636" stroke="white" stroke-width="2" stroke-linecap="round" stroke-linejoin="round"/>
</svg>
